<?xml version="1.0" encoding="UTF-8"?>
<svg id="Layer_1" xmlns="http://www.w3.org/2000/svg" version="1.1" viewBox="0 0 142.74 140.96">
  <!-- Generator: Adobe Illustrator 29.5.1, SVG Export Plug-In . SVG Version: 2.1.0 Build 141)  -->
  <defs>
    <style>
      .st0 {
        fill: #fff;
      }
    </style>
  </defs>
  <path class="st0" d="M142.74,125.48c0-.34-.26-.6-.6-.6h-.9c-.34,0-.6.26-.6.6v6.21c0,1.31-.37,1.85-1.2,1.85s-1.23-.54-1.23-1.85v-6.19c0-.36-.26-.62-.6-.62h-.9c-.34,0-.6.26-.6.6v6.51c0,1.42.8,3.46,2.88,3.46h.13c.41,0,.8-.09,1.12-.09.22,0,.39.13.39.37v.69c0,1.07-.47,1.55-1.21,1.55-.64,0-1.2-.41-1.2-1.1-.06-.36-.28-.56-.62-.56h-.86c-.32,0-.58.23-.6.54v.08c0,1.74,1.57,3.03,3.31,3.03,1.93,0,3.27-1.44,3.27-3.44v-11.03ZM133.82,121.92c0-.34-.26-.6-.6-.6h-.9c-.34,0-.6.26-.6.6v14.23c0,.34.26.6.6.6h.9c.34,0,.6-.26.6-.6v-14.23ZM126.21,134.91c-.86,0-1.24-.54-1.24-1.85v-4.47c0-1.27.39-1.85,1.22-1.85s1.22.58,1.22,1.85v4.47c0,1.31-.37,1.85-1.2,1.85M125.44,136.7c.26.09.64.19,1.05.19,1.44,0,3.01-1.08,3.01-3.55v-4.98c0-2.26-1.31-3.53-2.99-3.53-.49,0-.82.09-1.08.09-.22,0-.47-.21-.47-.47,0-.3.02-.43.02-.67v-1.85c0-.34-.26-.6-.6-.6h-.9c-.34,0-.6.26-.6.6v14.2c0,.54.34.75.73.75.22,0,.41-.11.58-.22l.07-.06c.13-.11.26-.15.41-.15.19,0,.41.13.77.26M118.58,136.16c0,.34.26.6.6.6h.9c.34,0,.6-.26.6-.6v-7.95c0-2.51-1.65-3.44-3.12-3.44-.88,0-1.4.19-1.91.54-.11.08-.22.13-.35.13-.15,0-.28-.06-.39-.13-.47-.37-.99-.54-1.63-.54-.37,0-.77.09-1.08.21-.34.13-.56.28-.73.28s-.3-.06-.43-.17l-.08-.06c-.17-.13-.36-.22-.58-.22-.41,0-.73.28-.73.75v10.6c0,.34.26.6.6.6h.9c.34,0,.6-.26.6-.6v-7.82c0-1.16.54-1.61,1.22-1.61s1.16.47,1.16,1.61v7.82c0,.34.26.6.6.6h.9c.34,0,.6-.26.6-.6v-7.82c0-1.16.49-1.61,1.16-1.61s1.22.47,1.22,1.61v7.82ZM106.72,131.24c.41,0,.71-.36.71-.71v-2.28c0-2.28-1.48-3.5-3.29-3.5s-3.33,1.2-3.33,3.53v5.07c0,2.41,1.53,3.53,3.33,3.53s3.29-1.2,3.29-3.48v-.13c0-.34-.26-.6-.6-.6h-.9c-.34,0-.6.26-.6.6v.04c0,1.12-.49,1.61-1.2,1.61s-1.23-.51-1.23-1.61v-1.66c0-.24.17-.41.43-.41h3.39ZM102.9,128.34c0-1.16.54-1.61,1.23-1.61.79,0,1.2.58,1.2,1.68v.56c0,.37-.24.43-.52.43h-1.48c-.21,0-.43-.07-.43-.41v-.65ZM96.55,133.71c0,.47-.34,1.2-1.16,1.2-.47,0-.79-.21-.99-.49-.19-.26-.26-.64-.26-1.03v-.11c0-.34-.26-.6-.6-.6h-.9c-.34,0-.6.26-.6.6v.28c0,2.08,1.46,3.33,3.29,3.33,2.62,0,3.33-2.08,3.33-3.1v-.49c0-1.23-.36-2-1.67-2.73l-1.91-1.07c-.8-.45-.93-.9-.93-1.31v-.26c0-.47.34-1.2,1.16-1.2.47,0,.79.21.99.49.19.26.26.64.26,1.03v.11c0,.34.26.6.6.6h.9c.34,0,.6-.26.6-.6v-.28c0-2.08-1.46-3.33-3.29-3.33-2.62,0-3.33,2.08-3.33,3.1v.62c0,1.16.45,1.91,1.76,2.64l1.85,1.03c.6.34.9.71.9,1.31v.26ZM87.83,133.71c0,.47-.34,1.2-1.16,1.2-.47,0-.78-.21-.99-.49-.19-.26-.26-.64-.26-1.03v-.11c0-.34-.26-.6-.6-.6h-.9c-.34,0-.6.26-.6.6v.28c0,2.08,1.46,3.33,3.29,3.33,2.62,0,3.33-2.08,3.33-3.1v-.49c0-1.23-.36-2-1.67-2.73l-1.91-1.07c-.8-.45-.93-.9-.93-1.31v-.26c0-.47.34-1.2,1.16-1.2.47,0,.79.21.99.49.19.26.26.64.26,1.03v.11c0,.34.26.6.6.6h.9c.34,0,.6-.26.6-.6v-.28c0-2.08-1.46-3.33-3.29-3.33-2.62,0-3.33,2.08-3.33,3.1v.62c0,1.16.45,1.91,1.76,2.64l1.85,1.03c.6.34.9.71.9,1.31v.26ZM74.34,136.16c0,.34.26.6.6.6h.95c.34,0,.6-.26.6-.6v-5.2c0-.19.15-.41.43-.41h1.63c.24,0,.43.19.43.41v5.2c0,.34.28.6.62.6h.94c.34,0,.6-.26.6-.6v-11.37c0-2.41-1.53-3.59-3.39-3.59s-3.4,1.18-3.4,3.59v11.37ZM78.98,128.17c0,.22-.19.41-.43.41h-1.63c-.28,0-.43-.22-.43-.41v-3.16c0-1.29.47-1.8,1.25-1.8s1.24.54,1.24,1.8v3.16ZM64.6,126.73c.84,0,1.22.71,1.22,1.53v.06c0,.34.26.6.6.6h.9c.34,0,.6-.26.6-.6v-.17c0-2.15-1.48-3.4-3.31-3.4s-3.31,1.16-3.31,3.53v5.07c0,2.36,1.53,3.53,3.33,3.53s3.29-1.2,3.29-3.48v-.24c0-.34-.26-.6-.6-.6h-.9c-.34,0-.6.26-.6.6v.13c0,1.12-.49,1.61-1.2,1.61-.86,0-1.24-.54-1.24-1.85v-4.47c0-1.27.39-1.85,1.22-1.85M56.89,122.84c0,.34.26.6.6.6h.9c.34,0,.6-.26.6-.6v-.92c0-.34-.26-.6-.6-.6h-.9c-.34,0-.6.26-.6.6v.92ZM56.89,136.16c0,.34.26.6.6.6h.9c.34,0,.6-.26.6-.6v-10.68c0-.34-.26-.6-.6-.6h-.9c-.34,0-.6.26-.6.6v10.68ZM50.52,124.88c-.41,0-.6.37-.6.6v.77c0,.35.28.62.6.62h.49c.24,0,.41.19.41.43v8.85c0,.34.24.62.6.62h.88c.26,0,.6-.22.6-.62v-8.83c0-.24.19-.45.45-.45h.65c.21,0,.6-.15.6-.62v-.82c0-.34-.3-.54-.6-.54h-.65c-.26,0-.45-.19-.45-.41v-.26c0-.54.28-.88.79-.88h.3c.34,0,.62-.24.62-.6v-.81c0-.32-.24-.6-.6-.6h-.47c-1.83,0-2.71,1.07-2.71,2.75v.39c0,.24-.17.41-.41.41h-.49ZM46.05,122.84c0,.34.26.6.6.6h.9c.34,0,.6-.26.6-.6v-.92c0-.34-.26-.6-.6-.6h-.9c-.34,0-.6.26-.6.6v.92ZM46.05,136.16c0,.34.26.6.6.6h.9c.34,0,.6-.26.6-.6v-10.68c0-.34-.26-.6-.6-.6h-.9c-.34,0-.6.26-.6.6v10.68ZM39.76,126.86c.24,0,.41.17.41.41v6.73c0,1.68.88,2.75,2.71,2.75h.58c.36,0,.6-.28.6-.6v-.8c0-.36-.28-.6-.62-.6h-.41c-.5,0-.79-.34-.79-.88v-6.6c0-.23.19-.41.45-.41h.77c.3,0,.6-.21.6-.54v-.82c0-.47-.39-.62-.6-.62h-.77c-.26,0-.45-.21-.45-.45v-1.18c0-.39-.34-.62-.6-.62h-.88c-.36,0-.6.28-.6.62v1.2c0,.24-.17.43-.41.43h-.26c-.32,0-.6.26-.6.62v.77c0,.22.19.6.6.6h.26ZM35.44,136.16c0,.34.26.6.6.6h.9c.34,0,.6-.26.6-.6v-7.95c0-1.1-.28-2-.97-2.64-.58-.54-1.29-.81-2-.81-.39,0-.77.08-1.08.19-.36.13-.58.3-.75.3s-.3-.06-.43-.17l-.07-.06c-.17-.13-.36-.22-.58-.22-.21,0-.37.08-.51.19-.13.13-.23.32-.23.56v10.6c0,.34.26.6.6.6h.9c.34,0,.6-.26.6-.6v-7.82c0-.58.09-.95.34-1.22s.52-.39.88-.39.64.13.86.39c.24.26.36.64.36,1.22v7.82ZM28,131.24c.41,0,.71-.36.71-.71v-2.28c0-2.28-1.48-3.5-3.29-3.5s-3.33,1.2-3.33,3.53v5.07c0,2.41,1.53,3.53,3.33,3.53s3.29-1.2,3.29-3.48v-.13c0-.34-.26-.6-.6-.6h-.9c-.34,0-.6.26-.6.6v.04c0,1.12-.49,1.61-1.2,1.61s-1.24-.51-1.24-1.61v-1.66c0-.24.17-.41.43-.41h3.38ZM24.18,128.34c0-1.16.54-1.61,1.24-1.61.78,0,1.2.58,1.2,1.68v.56c0,.37-.24.43-.52.43h-1.48c-.21,0-.43-.07-.43-.41v-.65ZM17.69,122.84c0,.34.26.6.6.6h.9c.34,0,.6-.26.6-.6v-.92c0-.34-.26-.6-.6-.6h-.9c-.34,0-.6.26-.6.6v.92ZM17.69,136.16c0,.34.26.6.6.6h.9c.34,0,.6-.26.6-.6v-10.68c0-.34-.26-.6-.6-.6h-.9c-.34,0-.6.26-.6.6v10.68ZM12.29,126.73c.84,0,1.22.71,1.22,1.53v.06c0,.34.26.6.6.6h.9c.34,0,.6-.26.6-.6v-.17c0-2.15-1.48-3.4-3.31-3.4s-3.31,1.16-3.31,3.53v5.07c0,2.36,1.53,3.53,3.33,3.53s3.29-1.2,3.29-3.48v-.24c0-.34-.26-.6-.6-.6h-.9c-.34,0-.6.26-.6.6v.13c0,1.12-.49,1.61-1.2,1.61-.86,0-1.24-.54-1.24-1.85v-4.47c0-1.27.39-1.85,1.22-1.85M2.15,132.36c0-.34-.3-.6-.64-.6h-.9c-.34,0-.62.26-.62.6v.95c0,2.36,1.53,3.57,3.4,3.57s3.4-1.12,3.4-3.55v-1.25c0-2.13-.71-2.81-2.09-3.55l-1.35-.73c-1.01-.54-1.23-.88-1.23-2.04v-.65c0-1.23.32-1.89,1.23-1.89.69,0,1.22.47,1.22,1.57v.79c0,.34.26.6.62.6h.9c.36,0,.64-.26.64-.6v-.81c0-2.28-1.36-3.57-3.35-3.57S0,122.62,0,124.67v1.57c0,1.52.54,2.47,2.06,3.33l1.55.86c.69.39,1.07.77,1.07,1.93v.94c0,1.1-.56,1.57-1.29,1.57-.93,0-1.23-.77-1.23-1.55v-.95Z"/>
  <path class="st0" d="M134.35,109.43c0-.71-.3-1.42-1.08-1.42h-1.73c-.61,0-1.08.47-1.08,1.08v1.93c0,4.16,2.78,6.26,6.16,6.26s6.13-2.13,6.13-6.2v-5.96c0-3.28-2.27-5.42-5.35-5.42-.85,0-1.29.14-1.62.14-.68,0-.74-.41-.74-1.25,0-.61.03-1.35.03-2.2v-2.71c0-.44.34-.78.78-.78h4.98c.61,0,1.08-.47,1.08-1.08v-1.62c0-.61-.47-1.08-1.08-1.08h-8.53c-.88,0-1.08.81-1.08,1.56v12.02c0,.91.64,1.42,1.42,1.42h.47c.68,0,.98-.1,1.66-.41l.54-.24c.41-.17.81-.3,1.32-.3,1.66,0,2.24,1.08,2.24,3.76v3.83c0,2.07-.95,2.88-2.24,2.88-2,0-2.27-1.59-2.27-3.55v-.64ZM126.19,117.05c.61,0,1.08-.47,1.08-1.08v-1.62c0-.61-.47-1.08-1.08-1.08h-6.13c-.54,0-.75-.27-.78-.71v-.24c0-.64.64-2.27,2.78-5.08l1.86-2.47c1.86-2.47,3.18-5.05,3.18-8.26v-1.39c0-4.27-2.88-6.23-6.13-6.23s-6.16,2.1-6.16,6.3v1.59c0,.61.51,1.08,1.12,1.08h1.69c.61,0,1.08-.47,1.08-1.08v-1.32c0-2.03.91-2.91,2.27-2.91s2.24.92,2.24,2.91v.95c0,2.34-.64,3.89-2.4,6.2l-1.32,1.73c-2.54,3.32-4.67,6.03-4.67,9.48v2.17c0,.61.47,1.08,1.08,1.08h10.29ZM111.25,95.38c0-4.37-2.78-6.5-6.13-6.5s-6.16,2.13-6.16,6.5v15.44c0,4.4,2.81,6.47,6.16,6.47,3.52,0,6.13-2.2,6.13-6.47v-15.44ZM102.86,95.44c0-2.03.91-2.91,2.27-2.91,1.22,0,2.24.78,2.24,2.91v15.3c0,2.13-1.02,2.88-2.24,2.88-1.32,0-2.27-.88-2.27-2.88v-15.3ZM94.7,117.05c.61,0,1.08-.47,1.08-1.08v-1.62c0-.61-.47-1.08-1.08-1.08h-6.13c-.54,0-.75-.27-.78-.71v-.24c0-.64.64-2.27,2.78-5.08l1.86-2.47c1.86-2.47,3.18-5.05,3.18-8.26v-1.39c0-4.27-2.88-6.23-6.13-6.23s-6.16,2.1-6.16,6.3v1.59c0,.61.51,1.08,1.12,1.08h1.69c.61,0,1.08-.47,1.08-1.08v-1.32c0-2.03.91-2.91,2.27-2.91s2.23.92,2.23,2.91v.95c0,2.34-.64,3.89-2.4,6.2l-1.32,1.73c-2.54,3.32-4.67,6.03-4.67,9.48v2.17c0,.61.47,1.08,1.08,1.08h10.29ZM72.18,90.23c0-.61-.47-1.12-1.08-1.12h-1.73c-.61,0-1.08.47-1.08,1.08v25.77c0,.61.47,1.08,1.08,1.08h1.73c.61,0,1.08-.47,1.08-1.08v-25.73ZM64.13,117.05c.61,0,1.08-.47,1.08-1.08v-1.62c0-.61-.47-1.08-1.08-1.08h-3.72c-.47,0-.78-.34-.78-.78v-6.81c0-.44.31-.78.78-.78h3.39c.61,0,1.08-.47,1.08-1.08v-1.62c0-.61-.47-1.08-1.08-1.08h-3.39c-.47,0-.78-.34-.78-.78v-6.64c0-.44.31-.78.78-.78h3.72c.61-.07,1.08-.47,1.08-1.08v-1.62c0-.61-.47-1.08-1.08-1.08h-7.31c-.61,0-1.08.47-1.08,1.08v25.77c0,.61.47,1.08,1.08,1.08h7.31ZM48.48,110.75c0,2.13-1.01,2.88-2.23,2.88-1.46,0-2.27-1.02-2.27-2.88v-15.3c0-2.03.95-2.91,2.27-2.91s2.23.85,2.23,2.91v1.32c0,.61.51,1.08,1.12,1.08h1.69c.61,0,1.08-.47,1.08-1.08v-1.39c0-4.37-2.78-6.5-6.13-6.5s-6.16,2.13-6.16,6.5v15.44c0,4.4,2.81,6.47,6.16,6.47s6.13-2.07,6.13-6.47v-1.73c0-.61-.47-1.08-1.08-1.08h-1.69c-.61,0-1.12.47-1.12,1.08v1.66ZM31.79,117.05c1.73,0,2.37-.71,2.54-2.23l2.64-23.36c.03-.34.1-.95.1-1.25,0-.54-.27-1.08-1.19-1.08h-1.29c-.95,0-1.35.37-1.46,1.29l-2.24,22.14c-.07.51-.31.81-.78.81s-.68-.31-.75-.81l-2.23-22.14c-.1-.91-.47-1.29-1.35-1.29h-1.49c-.74,0-1.12.54-1.12,1.08,0,.31.1.91.14,1.25l2.57,23.36c.17,1.52.81,2.23,2.54,2.23h3.35ZM7.58,115.96c0,.61.47,1.08,1.08,1.08h1.73c.61,0,1.08-.47,1.08-1.08v-9.41c0-.34.27-.74.78-.74h2.94c.44,0,.78.34.78.74v9.41c0,.61.51,1.08,1.12,1.08h1.69c.61,0,1.08-.47,1.08-1.08v-20.59c0-4.37-2.78-6.5-6.13-6.5s-6.16,2.13-6.16,6.5v20.59ZM15.98,101.51c0,.41-.34.75-.78.75h-2.94c-.51,0-.78-.41-.78-.75v-5.72c0-2.34.85-3.25,2.27-3.25s2.23.98,2.23,3.25v5.72ZM3.89,90.23c0-.61-.47-1.12-1.08-1.12h-1.73C.47,89.11,0,89.59,0,90.2v25.77c0,.61.47,1.08,1.08,1.08h1.73c.61,0,1.08-.47,1.08-1.08v-25.73Z"/>
  <path class="st0" d="M4.78,77.85l10.36-14.87,7.46,4.19,10.98-15.29,17.61-.21,15.75-16.76,4.76-.21,9.12,7.54,1.66.63,15.33,18.01,25.48,5.45,10.98,3.77,8.28,7.44c.13-1.77.2-3.56.2-5.37C142.74,32.31,110.79,0,71.37,0c-4.8,0-9.49.48-14.02,1.4.2,1.8-.23,3.72-.83,5.46-.89,2.54-2.12,5.03-2.21,7.71,1.86.48,3.76.99,5.38,2.04,1.62,1.05,2.94,2.76,3.03,4.71.07,1.52-.61,3.03-.37,4.54.45,2.75,3.58,4,6.23,4.75-2.59,2.15-7.07,1.13-8.5-1.93-.4-.85-.58-1.81-1.08-2.61-1.3-2.1-4.15-2.42-6.6-2.43-2.45-.01-5.24-.08-6.83-1.97-1.99-2.37-.8-5.98.47-8.81.34-.76-4.01-2.62-7.43-4.81C15.68,20.04,0,44.25,0,72.16c0,2.7.15,5.36.44,7.98l4.34-2.29Z"/>
  <path class="st0" d="M142.46,78.61l-8.69-7.72-36.56-9.17-15.06-17.83-3.68-2-6.22-4.98-4.47-1.02-4.97,12.06-8.93,8.75,3.68,4.65-1.66,2.98-9.12-4.66-3.59.09-8.1,8.75-1.93,3.44-.55-4.19-2.21,4.28,7.37,5.12,9.21-.09,2.02,4.38,9.39-3.07,1.28,4.05,82.33.1c.18-1.3.34-2.6.45-3.92"/>
  <polygon class="st0" points="105.45 69.73 107.72 59.53 119.62 60.38 120.19 69.45 105.45 69.73"/>
  <path class="st0" d="M121.11,52.66c0,5.48,0,10.96,0,16.44,0,2.81,0,5.63,0,8.44,0,1.41,0,2.81,0,4.22,0,1.07.23,2.46-.06,3.5-.08.27-.47.47-.63.24-.05-.07-.06-.16-.07-.24-.21-1.86-.09-3.85-.16-5.74-.1-2.74-.16-5.48-.33-8.21-.11-1.69-.4-3.37-.61-5.05-.11-.9-.27-1.8-.36-2.7-.36-3.64-.65-7.22-1.12-10.86-.07-.57-.16-1.16-.44-1.65-.27-.47-.71-.82-1.13-1.16-.4-.32-.8-.63-1.27-.83-.2-.08-.41-.15-.57-.3-.18-.18-.23-.43-.28-.67-.16-.78-.33-1.55-.41-2.34-.02-.24-.09-.53-.32-.59-.63-.17-1.01,1.37-1.13,1.76-.45,1.43-1.07,2.9-1.37,4.37-.35,1.72-.66,3.42-.98,5.15-.07.41-.22.8-.33,1.2-.07.24-.14.49-.16.74-.2,2.16-.37,4.32-.58,6.48-.07.7-.22,1.39-.35,2.08-.01.08-.11.15-.17.22-.08-.07-.21-.13-.23-.21-.07-.33-.08-.67-.16-.99-.15-.56-.34-1.12-.5-1.63-.36.29-.72.58-1.06.88-.11.1-.2.23-.27.36-.22.39-.45.77-.65,1.17-.22.43-.44.86-.62,1.31-.35.85-.62,1.74-1.01,2.57-.66,1.41-1.09,2.86-1.16,4.42-.02.5-.09.99-.14,1.48h-.16c-.05-.67-.12-1.35-.15-2.02-.04-.82-.16-1.66-.06-2.47.14-1.09.21-2.21.87-3.2.38-.57.5-1.35.64-2.05.18-.9.24-1.83.4-2.74.29-1.65.61-3.3.94-4.95.13-.64.33-1.27.5-1.9.05-.17.14-.32.26-.61.1.58.18,1.01.26,1.45.07,0,.14,0,.21.01.29-.46.57-.92.89-1.42.12.13.2.23.31.36.07-.16.16-.28.19-.42.22-.95.46-1.9.64-2.85.62-3.12,1.2-6.24,1.83-9.35.11-.55.36-1.08.62-1.58.91-1.69,1.64-3.44,2.18-5.3.44-1.54,1.19-2.99,1.81-4.48.02-.06.07-.12.09-.18.26-.95.96-1.38,1.85-1.64.28-.08.57-.3.75-.54.33-.44.57-.95.88-1.41.09-.13.27-.2.41-.3.08.14.21.27.23.42.19,1.24.37,2.48.57,3.86.17-.31.28-.51.39-.72.04-.01.09-.02.13-.03.07.36.19.71.2,1.07.03,1.24,0,2.49.02,3.73,0,.22-.16.55.28.61.04,0,.07.27.06.42-.02,1.4-.07,2.79-.08,4.19,0,.21.12.43.17.65.04.17.11.35.1.52-.03.74-.09,1.48-.11,2.22,0,.18.07.43.2.51.29.19.32.43.31.73-.07,1.28-.16,2.55-.18,3.83,0,.57.19,1.15.19,1.73"/>
</svg>